<svg width="1500" height="1500" viewBox="0 0 1500 1500" fill="none" xmlns="http://www.w3.org/2000/svg">
<path d="M750 0C886.068 0 1011.56 33.5286 1126.46 100.586C1241.37 167.643 1332.36 258.626 1399.41 373.535C1466.47 488.444 1500 613.932 1500 750C1500 886.068 1466.47 1011.56 1399.41 1126.46C1332.36 1241.37 1241.37 1332.36 1126.46 1399.41C1011.56 1466.47 886.068 1500 750 1500C613.932 1500 488.444 1466.47 373.535 1399.41C258.626 1332.36 167.643 1241.37 100.586 1126.46C33.5286 1011.56 0 886.068 0 750C0 613.932 33.5286 488.444 100.586 373.535C167.643 258.626 258.626 167.643 373.535 100.586C488.444 33.5286 613.932 0 750 0ZM1017.58 508.789C1016.28 509.44 1013.18 512.533 1008.3 518.066C1003.42 523.6 999.023 526.693 995.117 527.344C996.419 527.344 997.884 525.716 999.512 522.461C1001.14 519.206 1002.77 515.625 1004.39 511.719C1006.02 507.812 1007.16 505.534 1007.81 504.883C1011.72 500.326 1018.88 495.443 1029.3 490.234C1038.41 486.328 1055.34 482.422 1080.08 478.516C1102.21 473.307 1118.82 476.888 1129.88 489.258C1128.58 487.956 1131.67 483.724 1139.16 476.562C1146.65 469.401 1151.37 465.495 1153.32 464.844C1155.27 463.542 1160.16 462.077 1167.97 460.449C1175.78 458.822 1180.66 456.38 1182.62 453.125L1184.57 431.641C1176.76 432.292 1171.06 430.013 1167.48 424.805C1163.9 419.596 1161.78 412.76 1161.13 404.297C1161.13 405.599 1159.18 408.203 1155.27 412.109C1155.27 407.552 1153.81 404.948 1150.88 404.297C1147.95 403.646 1144.21 403.971 1139.65 405.273C1135.09 406.576 1132.16 406.901 1130.86 406.25C1124.35 404.297 1119.47 401.855 1116.21 398.926C1112.96 395.996 1110.35 390.625 1108.4 382.812C1106.45 375 1105.14 370.117 1104.49 368.164C1103.19 364.909 1100.1 361.491 1095.21 357.91C1090.33 354.329 1087.24 350.911 1085.94 347.656C1085.29 346.354 1084.47 344.564 1083.5 342.285C1082.52 340.007 1081.54 337.891 1080.57 335.938C1079.59 333.984 1078.29 332.194 1076.66 330.566C1075.03 328.939 1073.24 328.125 1071.29 328.125C1069.34 328.125 1067.06 329.753 1064.45 333.008C1061.85 336.263 1059.41 339.518 1057.13 342.773C1054.85 346.029 1053.39 347.656 1052.73 347.656C1050.78 346.354 1048.83 345.866 1046.88 346.191C1044.92 346.517 1043.46 346.842 1042.48 347.168C1041.5 347.493 1040.04 348.47 1038.09 350.098C1036.13 351.725 1034.51 352.865 1033.2 353.516C1031.25 354.818 1028.48 355.794 1024.9 356.445C1021.32 357.096 1018.55 357.747 1016.6 358.398C1026.37 355.143 1026.04 351.562 1015.62 347.656C1009.11 345.052 1003.91 344.076 1000 344.727C1005.86 342.122 1008.3 338.216 1007.32 333.008C1006.35 327.799 1003.58 323.242 999.023 319.336H1003.91C1003.26 316.732 1000.49 313.965 995.605 311.035C990.723 308.105 985.026 305.339 978.516 302.734C972.005 300.13 967.773 298.177 965.82 296.875C960.612 293.62 949.544 290.527 932.617 287.598C915.69 284.668 904.948 284.505 900.391 287.109C897.135 291.016 895.671 294.434 895.996 297.363C896.322 300.293 897.624 304.85 899.902 311.035C902.181 317.22 903.32 321.289 903.32 323.242C903.971 327.148 902.181 331.38 897.949 335.938C893.717 340.495 891.602 344.401 891.602 347.656C891.602 352.214 896.159 357.259 905.273 362.793C914.388 368.327 917.643 375.326 915.039 383.789C913.086 388.997 907.878 394.206 899.414 399.414C890.951 404.622 885.742 408.529 883.789 411.133C880.534 416.341 880.046 422.363 882.324 429.199C884.603 436.035 888.021 441.406 892.578 445.312C893.88 446.615 894.368 447.917 894.043 449.219C893.717 450.521 892.578 451.986 890.625 453.613C888.672 455.241 886.882 456.543 885.254 457.52C883.626 458.496 881.51 459.635 878.906 460.938L875.977 462.891C868.815 466.146 862.142 464.193 855.957 457.031C849.772 449.87 845.378 441.406 842.773 431.641C838.216 415.365 833.008 405.599 827.148 402.344C812.174 397.135 802.734 397.461 798.828 403.32C795.573 394.857 782.227 386.393 758.789 377.93C742.513 372.07 723.633 370.768 702.148 374.023C706.055 373.372 706.055 368.49 702.148 359.375C697.591 349.609 691.406 345.703 683.594 347.656C685.547 343.75 686.849 338.053 687.5 330.566C688.151 323.079 688.477 318.685 688.477 317.383C690.43 308.919 694.336 301.432 700.195 294.922C700.846 294.271 703.125 291.504 707.031 286.621C710.938 281.738 714.03 277.344 716.309 273.438C718.587 269.531 718.75 267.578 716.797 267.578C739.583 270.182 755.859 266.602 765.625 256.836C768.88 253.581 772.624 248.047 776.855 240.234C781.087 232.422 784.505 226.888 787.109 223.633C792.969 219.727 797.526 217.936 800.781 218.262C804.036 218.587 808.757 220.378 814.941 223.633C821.126 226.888 825.846 228.516 829.102 228.516C838.216 229.167 843.262 225.586 844.238 217.773C845.215 209.961 842.773 203.451 836.914 198.242C844.727 198.893 845.703 193.359 839.844 181.641C836.589 177.083 833.984 174.154 832.031 172.852C824.219 170.247 815.43 171.875 805.664 177.734C800.456 180.339 801.107 182.943 807.617 185.547C806.966 184.896 803.874 188.314 798.34 195.801C792.806 203.288 787.435 208.984 782.227 212.891C777.018 216.797 771.81 215.169 766.602 208.008C765.951 207.357 764.16 202.962 761.23 194.824C758.301 186.686 755.208 182.292 751.953 181.641C746.745 181.641 741.536 186.523 736.328 196.289C738.281 191.081 734.701 186.198 725.586 181.641C716.471 177.083 708.659 174.479 702.148 173.828C714.518 166.016 711.914 157.227 694.336 147.461C689.779 144.857 683.105 143.229 674.316 142.578C665.527 141.927 659.18 143.229 655.273 146.484C652.018 151.042 650.228 154.785 649.902 157.715C649.577 160.645 651.204 163.249 654.785 165.527C658.366 167.806 661.784 169.596 665.039 170.898C668.294 172.201 672.038 173.503 676.27 174.805C680.501 176.107 683.268 177.083 684.57 177.734C693.685 184.245 696.289 188.802 692.383 191.406C691.081 192.057 688.314 193.197 684.082 194.824C679.85 196.452 676.107 197.917 672.852 199.219C669.596 200.521 667.643 201.823 666.992 203.125C665.039 205.729 665.039 210.286 666.992 216.797C668.945 223.307 668.294 227.865 665.039 230.469C661.784 227.214 658.854 221.517 656.25 213.379C653.646 205.241 651.367 199.87 649.414 197.266C653.971 203.125 645.833 205.078 625 203.125L615.234 202.148C612.63 202.148 607.422 202.799 599.609 204.102C591.797 205.404 585.124 205.729 579.59 205.078C574.056 204.427 569.661 201.823 566.406 197.266C563.802 192.057 563.802 185.547 566.406 177.734C567.057 175.13 568.359 174.479 570.312 175.781C567.708 173.828 564.128 170.736 559.57 166.504C555.013 162.272 551.758 159.505 549.805 158.203C519.857 167.969 489.258 181.315 458.008 198.242C461.914 198.893 465.82 198.568 469.727 197.266C472.982 195.964 477.214 193.848 482.422 190.918C487.63 187.988 490.885 186.198 492.188 185.547C514.323 176.432 527.995 174.154 533.203 178.711L538.086 173.828C547.201 184.245 553.711 192.383 557.617 198.242C553.06 195.638 543.294 195.312 528.32 197.266C515.299 201.172 508.138 205.078 506.836 208.984C511.393 216.797 513.021 222.656 511.719 226.562C509.115 224.609 505.371 221.354 500.488 216.797C495.605 212.24 490.885 208.659 486.328 206.055C481.771 203.451 476.888 201.823 471.68 201.172C461.263 201.172 454.102 201.497 450.195 202.148C355.143 254.232 278.646 326.497 220.703 418.945C225.26 423.503 229.167 426.107 232.422 426.758C235.026 427.409 236.654 430.339 237.305 435.547C237.956 440.755 238.77 444.336 239.746 446.289C240.723 448.242 244.466 447.266 250.977 443.359C256.836 448.568 257.812 454.753 253.906 461.914C254.557 461.263 268.88 470.052 296.875 488.281C309.245 499.349 316.081 506.185 317.383 508.789C319.336 515.951 316.081 521.81 307.617 526.367C306.966 525.065 304.036 522.135 298.828 517.578C293.62 513.021 290.69 511.719 290.039 513.672C288.086 516.927 288.249 522.949 290.527 531.738C292.806 540.527 296.224 544.596 300.781 543.945C296.224 543.945 293.132 549.154 291.504 559.57C289.876 569.987 289.062 581.543 289.062 594.238C289.062 606.934 288.737 614.583 288.086 617.188L290.039 618.164C288.086 625.977 289.876 637.207 295.41 651.855C300.944 666.504 307.943 672.852 316.406 670.898C307.943 672.852 314.453 686.849 335.938 712.891C339.844 718.099 342.448 721.029 343.75 721.68C345.703 722.982 349.609 725.423 355.469 729.004C361.328 732.585 366.211 735.84 370.117 738.77C374.023 741.699 377.279 745.117 379.883 749.023C382.487 752.279 385.742 759.603 389.648 770.996C393.555 782.389 398.112 790.039 403.32 793.945C402.018 797.852 405.111 804.362 412.598 813.477C420.085 822.591 423.503 830.078 422.852 835.938C422.201 835.938 421.387 836.263 420.41 836.914C419.434 837.565 418.62 837.891 417.969 837.891C419.922 842.448 424.967 847.005 433.105 851.562C441.243 856.12 446.289 860.352 448.242 864.258C448.893 866.211 449.544 869.466 450.195 874.023C450.846 878.581 451.823 882.161 453.125 884.766C454.427 887.37 457.031 888.021 460.938 886.719C462.24 873.698 454.427 853.516 437.5 826.172C427.734 809.896 422.201 800.456 420.898 797.852C418.945 794.596 417.155 789.551 415.527 782.715C413.9 775.879 412.435 771.159 411.133 768.555C412.435 768.555 414.388 769.043 416.992 770.02C419.596 770.996 422.363 772.135 425.293 773.438C428.223 774.74 430.664 776.042 432.617 777.344C434.57 778.646 435.221 779.622 434.57 780.273C432.617 784.831 433.268 790.527 436.523 797.363C439.779 804.199 443.685 810.221 448.242 815.43C452.799 820.638 458.333 826.823 464.844 833.984C471.354 841.146 475.26 845.378 476.562 846.68C480.469 850.586 485.026 856.934 490.234 865.723C495.443 874.512 495.443 878.906 490.234 878.906C496.094 878.906 502.604 882.161 509.766 888.672C516.927 895.182 522.461 901.693 526.367 908.203C529.622 913.411 532.227 921.875 534.18 933.594C536.133 945.312 537.76 953.125 539.062 957.031C540.365 961.589 543.132 965.983 547.363 970.215C551.595 974.447 555.664 977.539 559.57 979.492L575.195 987.305L587.891 994.141C591.146 995.443 597.168 998.861 605.957 1004.39C614.746 1009.93 621.745 1013.67 626.953 1015.62C633.464 1018.23 638.672 1019.53 642.578 1019.53C646.484 1019.53 651.204 1018.72 656.738 1017.09C662.272 1015.46 666.667 1014.32 669.922 1013.67C679.688 1012.37 689.128 1017.25 698.242 1028.32C707.357 1039.39 714.193 1046.22 718.75 1048.83C742.188 1061.2 760.091 1064.78 772.461 1059.57C771.159 1060.22 771.322 1062.66 772.949 1066.89C774.577 1071.13 777.181 1076.17 780.762 1082.03C784.342 1087.89 787.272 1092.61 789.551 1096.19C791.829 1099.77 793.62 1102.54 794.922 1104.49C798.177 1108.4 804.036 1113.28 812.5 1119.14C820.964 1125 826.823 1129.88 830.078 1133.79C833.984 1131.18 836.263 1128.26 836.914 1125C834.961 1130.21 837.24 1136.72 843.75 1144.53C850.26 1152.34 856.12 1155.6 861.328 1154.3C870.443 1152.34 875 1141.93 875 1123.05C854.818 1132.81 838.867 1126.95 827.148 1105.47C827.148 1104.82 826.335 1103.03 824.707 1100.1C823.079 1097.17 821.777 1094.4 820.801 1091.8C819.824 1089.19 819.01 1086.43 818.359 1083.5C817.708 1080.57 817.708 1078.12 818.359 1076.17C819.01 1074.22 820.638 1073.24 823.242 1073.24C829.102 1073.24 832.357 1072.1 833.008 1069.82C833.659 1067.55 833.008 1063.48 831.055 1057.62C829.102 1051.76 827.799 1047.53 827.148 1044.92C826.497 1039.71 822.917 1033.2 816.406 1025.39C809.896 1017.58 805.99 1012.7 804.688 1010.74C801.432 1016.6 796.224 1019.21 789.062 1018.55C781.901 1017.9 776.693 1014.97 773.438 1009.77C773.438 1010.42 772.949 1012.21 771.973 1015.14C770.996 1018.07 770.508 1020.18 770.508 1021.48C762.044 1021.48 757.161 1021.16 755.859 1020.51C756.51 1018.55 757.324 1012.86 758.301 1003.42C759.277 993.978 760.417 986.654 761.719 981.445C762.37 978.841 764.16 974.935 767.09 969.727C770.02 964.518 772.461 959.798 774.414 955.566C776.367 951.335 777.669 947.266 778.32 943.359C778.971 939.453 777.507 936.361 773.926 934.082C770.345 931.803 764.648 930.99 756.836 931.641C744.466 932.292 736.003 938.802 731.445 951.172C730.794 953.125 729.818 956.543 728.516 961.426C727.214 966.309 725.586 970.052 723.633 972.656C721.68 975.26 718.75 977.539 714.844 979.492C710.286 981.445 702.474 982.096 691.406 981.445C680.339 980.794 672.526 979.167 667.969 976.562C659.505 971.354 652.181 961.914 645.996 948.242C639.811 934.57 636.719 922.526 636.719 912.109C636.719 905.599 637.533 896.973 639.16 886.23C640.788 875.488 641.764 867.35 642.09 861.816C642.415 856.283 640.625 848.307 636.719 837.891C638.672 836.589 641.602 833.496 645.508 828.613C649.414 823.73 652.669 820.312 655.273 818.359C656.576 817.708 658.04 817.22 659.668 816.895C661.296 816.569 662.76 816.569 664.062 816.895C665.365 817.22 666.667 816.732 667.969 815.43C669.271 814.128 670.247 812.174 670.898 809.57C670.247 808.919 668.945 807.943 666.992 806.641C665.039 804.688 663.737 803.711 663.086 803.711C667.643 805.664 676.921 805.176 690.918 802.246C704.915 799.316 713.867 799.805 717.773 803.711C727.539 810.872 734.701 810.221 739.258 801.758C739.258 801.107 738.444 798.014 736.816 792.48C735.189 786.947 735.026 782.552 736.328 779.297C739.583 796.875 749.023 799.805 764.648 788.086C766.602 790.039 771.647 791.667 779.785 792.969C787.923 794.271 793.62 795.898 796.875 797.852C798.828 799.154 801.107 800.944 803.711 803.223C806.315 805.501 808.105 806.966 809.082 807.617C810.059 808.268 811.686 808.105 813.965 807.129C816.243 806.152 819.01 804.036 822.266 800.781C828.776 809.896 832.682 817.708 833.984 824.219C841.146 850.26 847.331 864.583 852.539 867.188C857.096 869.141 860.677 869.792 863.281 869.141C865.885 868.49 867.35 865.397 867.676 859.863C868.001 854.329 868.001 849.772 867.676 846.191C867.35 842.611 866.862 838.542 866.211 833.984L865.234 826.172V808.594L864.258 800.781C854.492 798.828 848.47 794.922 846.191 789.062C843.913 783.203 844.401 777.181 847.656 770.996C850.911 764.811 855.794 758.789 862.305 752.93C862.956 752.279 865.56 751.139 870.117 749.512C874.674 747.884 879.72 745.768 885.254 743.164C890.788 740.56 894.857 737.956 897.461 735.352C911.133 722.982 916.016 711.589 912.109 701.172C916.667 701.172 920.247 698.242 922.852 692.383C922.201 692.383 920.573 691.406 917.969 689.453C915.365 687.5 912.923 685.872 910.645 684.57C908.366 683.268 906.901 682.617 906.25 682.617C912.109 679.362 912.76 674.154 908.203 666.992C911.458 665.039 913.9 661.458 915.527 656.25C917.155 651.042 919.596 647.786 922.852 646.484C928.711 654.297 935.547 654.948 943.359 648.438C947.917 643.229 948.242 638.021 944.336 632.812C947.591 628.255 954.264 624.837 964.355 622.559C974.447 620.28 980.469 617.188 982.422 613.281C986.979 614.583 989.583 613.932 990.234 611.328C990.885 608.724 991.211 604.818 991.211 599.609C991.211 594.401 992.188 590.495 994.141 587.891C996.745 584.635 1001.63 581.706 1008.79 579.102C1015.95 576.497 1020.18 574.87 1021.48 574.219L1038.09 563.477C1040.04 560.872 1040.04 559.57 1038.09 559.57C1049.8 560.872 1059.9 557.292 1068.36 548.828C1074.87 541.667 1072.92 535.156 1062.5 529.297C1064.45 525.391 1063.48 522.298 1059.57 520.02C1055.66 517.741 1050.78 515.951 1044.92 514.648C1046.88 513.997 1050.62 513.835 1056.15 514.16C1061.69 514.486 1065.1 513.997 1066.41 512.695C1076.17 506.185 1073.89 500.977 1059.57 497.07C1048.5 493.815 1034.51 497.721 1017.58 508.789ZM858.398 1365.23C992.513 1341.8 1106.77 1280.27 1201.17 1180.66C1199.22 1178.71 1195.15 1177.25 1188.96 1176.27C1182.78 1175.29 1178.71 1174.15 1176.76 1172.85C1165.04 1168.29 1157.23 1165.69 1153.32 1165.04C1153.97 1160.48 1153.16 1156.25 1150.88 1152.34C1148.6 1148.44 1146 1145.51 1143.07 1143.55C1140.14 1141.6 1136.07 1139 1130.86 1135.74C1125.65 1132.49 1122.07 1130.21 1120.12 1128.91C1118.82 1127.6 1116.54 1125.65 1113.28 1123.05C1110.03 1120.44 1107.75 1118.65 1106.45 1117.68C1105.14 1116.7 1102.7 1115.23 1099.12 1113.28C1095.54 1111.33 1092.77 1110.68 1090.82 1111.33C1088.87 1111.98 1085.61 1112.3 1081.05 1112.3L1078.12 1113.28C1076.17 1113.93 1074.38 1114.75 1072.75 1115.72C1071.13 1116.7 1069.34 1117.68 1067.38 1118.65C1065.43 1119.63 1064.13 1120.61 1063.48 1121.58C1062.83 1122.56 1062.83 1123.37 1063.48 1124.02C1049.8 1112.96 1038.09 1105.79 1028.32 1102.54C1025.07 1101.89 1021.48 1100.1 1017.58 1097.17C1013.67 1094.24 1010.25 1091.96 1007.32 1090.33C1004.39 1088.7 1001.14 1088.22 997.559 1088.87C993.978 1089.52 990.234 1091.8 986.328 1095.7C983.073 1098.96 981.12 1103.84 980.469 1110.35C979.818 1116.86 979.167 1121.09 978.516 1123.05C973.958 1119.79 973.958 1114.1 978.516 1105.96C983.073 1097.82 983.724 1091.8 980.469 1087.89C978.516 1083.98 975.098 1082.52 970.215 1083.5C965.332 1084.47 961.426 1085.94 958.496 1087.89C955.566 1089.84 951.823 1092.61 947.266 1096.19C942.708 1099.77 939.779 1101.89 938.477 1102.54C937.174 1103.19 934.408 1104.98 930.176 1107.91C925.944 1110.84 923.177 1113.28 921.875 1115.23C919.922 1117.84 917.969 1121.74 916.016 1126.95C914.062 1132.16 912.435 1135.74 911.133 1137.7C909.831 1135.09 906.087 1132.98 899.902 1131.35C893.717 1129.72 890.625 1127.93 890.625 1125.98C891.927 1132.49 893.229 1143.88 894.531 1160.16C895.833 1176.43 897.461 1188.8 899.414 1197.27C903.971 1217.45 900.065 1233.07 887.695 1244.14C870.117 1260.42 860.677 1273.44 859.375 1283.2C856.771 1297.53 860.677 1305.99 871.094 1308.59C871.094 1313.15 868.49 1319.82 863.281 1328.61C858.073 1337.4 855.794 1344.4 856.445 1349.61C856.445 1353.52 857.096 1358.72 858.398 1365.23Z" fill="white"/>
</svg>
