<svg width="1500" height="1500" viewBox="0 0 1500 1500" fill="none" xmlns="http://www.w3.org/2000/svg">
<path d="M1218.75 0C1296.22 0 1362.47 27.5065 1417.48 82.5195C1472.49 137.533 1500 203.776 1500 281.25V1218.75C1500 1296.22 1472.49 1362.47 1417.48 1417.48C1362.47 1472.49 1296.22 1500 1218.75 1500H1035.16V918.945H1229.49L1258.79 692.383H1035.16V547.852C1035.16 511.393 1042.81 484.049 1058.11 465.82C1073.4 447.591 1103.19 438.477 1147.46 438.477L1266.6 437.5V235.352C1225.59 229.492 1167.64 226.562 1092.77 226.562C1004.23 226.562 933.431 252.604 880.371 304.688C827.311 356.771 800.781 430.339 800.781 525.391V692.383H605.469V918.945H800.781V1500H281.25C203.776 1500 137.533 1472.49 82.5195 1417.48C27.5065 1362.47 0 1296.22 0 1218.75V281.25C0 203.776 27.5065 137.533 82.5195 82.5195C137.533 27.5065 203.776 0 281.25 0H1218.75Z" fill="white"/>
</svg>
