<svg width="1600" height="1400" viewBox="0 0 1600 1400" fill="none" xmlns="http://www.w3.org/2000/svg">
<path d="M1371.63 806.391V1330.16C1371.63 1349.08 1365.35 1365.45 1352.78 1379.27C1340.21 1393.09 1325.32 1400 1308.12 1400H927.03V980.982H672.97V1400H291.881C274.68 1400 259.793 1393.09 247.223 1379.27C234.652 1365.45 228.367 1349.08 228.367 1330.16V806.391C228.367 805.664 228.532 804.573 228.863 803.118C229.194 801.663 229.359 800.572 229.359 799.844L800 282.619L1370.64 799.844C1371.3 801.299 1371.63 803.481 1371.63 806.391ZM1592.94 731.099L1531.41 811.847C1526.12 818.394 1519.17 822.395 1510.57 823.85H1507.59C1498.99 823.85 1492.05 821.304 1486.75 816.212L800 186.594L113.246 816.212C105.307 822.032 97.3673 824.578 89.428 823.85C80.827 822.395 73.8801 818.394 68.5872 811.847L7.0572 731.099C1.7643 723.824 -0.551344 715.277 0.110269 705.456C0.771882 695.635 4.41075 687.815 11.0269 681.995L724.576 28.371C745.748 9.457 770.889 0 800 0C829.111 0 854.252 9.457 875.424 28.371L1117.57 250.974V38.1917C1117.57 28.0073 1120.55 19.6415 1126.51 13.0943C1132.46 6.54715 1140.07 3.27358 1149.33 3.27358H1339.88C1349.14 3.27358 1356.75 6.54715 1362.7 13.0943C1368.66 19.6415 1371.63 28.0073 1371.63 38.1917V483.398L1588.97 681.995C1595.59 687.815 1599.23 695.635 1599.89 705.456C1600.55 715.277 1598.24 723.824 1592.94 731.099Z" fill="#FFEC65"/>
</svg>
