<svg width="1792" height="1500" viewBox="0 0 1792 1500" fill="none" xmlns="http://www.w3.org/2000/svg">
<path d="M1909.09 483.665V1329.55C1909.09 1376.42 1892.4 1416.55 1859.02 1449.93C1825.64 1483.31 1785.51 1500 1738.64 1500H170.455C123.58 1500 83.4517 1483.31 50.071 1449.93C16.6903 1416.55 0 1376.42 0 1329.55V483.665C31.25 518.466 67.1165 549.361 107.599 576.349C364.702 751.065 541.193 873.58 637.074 943.892C677.557 973.722 710.405 996.982 735.618 1013.67C760.831 1030.36 794.389 1047.41 836.293 1064.81C878.196 1082.21 917.258 1090.91 953.48 1090.91H955.611C991.832 1090.91 1030.89 1082.21 1072.8 1064.81C1114.7 1047.41 1148.26 1030.36 1173.47 1013.67C1198.69 996.982 1231.53 973.722 1272.02 943.892C1392.76 856.534 1569.6 734.02 1802.56 576.349C1843.04 548.651 1878.55 517.756 1909.09 483.665ZM1909.09 170.455C1909.09 226.562 1891.69 280.185 1856.89 331.321C1822.09 382.457 1778.76 426.136 1726.92 462.358C1459.87 647.727 1293.68 763.139 1228.34 808.594C1221.24 813.565 1206.14 824.396 1183.06 841.087C1159.98 857.777 1140.8 871.271 1125.53 881.57C1110.26 891.868 1091.8 903.409 1070.13 916.193C1048.47 928.977 1028.05 938.565 1008.88 944.957C989.702 951.349 971.946 954.545 955.611 954.545H953.48C937.145 954.545 919.389 951.349 900.213 944.957C881.037 938.565 860.618 928.977 838.956 916.193C817.294 903.409 798.828 891.868 783.558 881.57C768.288 871.271 749.112 857.777 726.03 841.087C702.947 824.396 687.855 813.565 680.753 808.594C616.122 763.139 523.082 698.331 401.634 614.169C280.185 530.007 207.386 479.403 183.239 462.358C139.205 432.528 97.6562 391.513 58.5937 339.311C19.5312 287.109 0 238.636 0 193.892C0 138.494 14.7372 92.3295 44.2116 55.3977C73.6861 18.4659 115.767 0 170.455 0H1738.64C1784.8 0 1824.75 16.6903 1858.49 50.071C1892.22 83.4517 1909.09 123.58 1909.09 170.455Z" fill="white"/>
</svg>
