<svg width="1326" height="1400" viewBox="0 0 1326 1400" fill="none" xmlns="http://www.w3.org/2000/svg">
<path d="M1105 970.703C1105 964.019 1104.42 959.158 1103.27 956.12C1101.55 951.259 1090.47 942.296 1070.04 929.232C1049.61 916.168 1024.14 901.128 993.637 884.115L947.883 857.682C945.005 855.859 939.538 851.91 931.48 845.833C923.423 839.757 916.229 835.2 909.898 832.161C903.568 829.123 897.525 827.604 891.77 827.604C881.41 827.604 867.885 837.478 851.195 857.227C834.505 876.975 818.103 896.875 801.988 916.927C785.874 936.979 773.212 947.005 764.004 947.005C759.975 947.005 755.227 945.942 749.76 943.815C744.292 941.688 739.832 939.714 736.379 937.891C732.926 936.068 728.034 933.181 721.703 929.232C715.372 925.282 711.344 922.7 709.617 921.484C652.641 888.064 603.577 849.631 562.428 806.185C521.278 762.739 484.876 710.938 453.223 650.781C452.072 648.958 449.626 644.705 445.885 638.021C442.144 631.337 439.41 626.172 437.684 622.526C435.957 618.88 434.087 614.171 432.072 608.398C430.058 602.626 429.051 597.613 429.051 593.359C429.051 585.46 434.95 575.282 446.748 562.826C458.546 550.369 471.495 538.672 485.596 527.734C499.696 516.797 512.645 504.796 524.443 491.732C536.242 478.668 542.141 467.578 542.141 458.464C542.141 452.387 540.702 446.007 537.824 439.323C534.947 432.639 530.63 425.043 524.875 416.536C519.12 408.029 515.379 402.257 513.652 399.219C511.926 395.573 507.609 386.914 500.703 373.242C493.797 359.57 486.603 345.747 479.121 331.771C471.639 317.795 464.014 303.364 456.244 288.477C448.475 273.589 441.281 261.285 434.662 251.562C428.044 241.84 423.296 236.372 420.418 235.156C417.54 233.941 412.936 233.333 406.605 233.333C378.98 233.333 349.917 240.017 319.414 253.385C292.94 266.146 269.919 294.857 250.352 339.518C230.784 384.18 221 423.828 221 458.464C221 468.186 221.719 478.516 223.158 489.453C224.597 500.391 226.036 509.657 227.475 517.253C228.913 524.848 231.503 534.874 235.244 547.331C238.985 559.787 241.863 568.75 243.877 574.219C245.891 579.688 249.488 589.714 254.668 604.297C259.848 618.88 263.013 627.995 264.164 631.641C298.695 731.293 360.995 828.668 451.064 923.763C541.133 1018.86 633.361 1084.64 727.746 1121.09C731.199 1122.31 739.832 1125.65 753.645 1131.12C767.457 1136.59 776.953 1140.39 782.133 1142.51C787.313 1144.64 795.801 1147.68 807.6 1151.63C819.398 1155.58 828.894 1158.31 836.088 1159.83C843.282 1161.35 852.059 1162.87 862.418 1164.39C872.777 1165.91 882.561 1166.67 891.77 1166.67C924.574 1166.67 962.127 1156.34 1004.43 1135.68C1046.73 1115.02 1073.92 1090.71 1086.01 1062.76C1098.67 1030.56 1105 999.87 1105 970.703ZM1326 262.5V1137.5C1326 1209.81 1301.68 1271.64 1253.05 1322.98C1204.42 1374.33 1145.86 1400 1077.38 1400H248.625C180.138 1400 121.579 1374.33 72.9473 1322.98C24.3158 1271.64 0 1209.81 0 1137.5V262.5C0 190.191 24.3158 128.364 72.9473 77.0182C121.579 25.6727 180.138 0 248.625 0H1077.38C1145.86 0 1204.42 25.6727 1253.05 77.0182C1301.68 128.364 1326 190.191 1326 262.5Z" fill="#FFEC65"/>
</svg>
